<svg xmlns="http://www.w3.org/2000/svg" width="50" height="50" viewBox="0 0 50 50"><defs><style>.a{fill:rgba(255,255,255,0.7);}</style></defs><circle class="a" cx="25" cy="25" r="25"/><path d="M12.925,4.434,7.577,9.78H1.443A1.442,1.442,0,0,0,0,11.223v8.655a1.443,1.443,0,0,0,1.443,1.443H7.577l5.348,5.346a1.443,1.443,0,0,0,2.463-1.02V5.454A1.444,1.444,0,0,0,12.925,4.434Zm14.024-3.07a1.455,1.455,0,1,0-1.6,2.432,14.044,14.044,0,0,1,0,23.511,1.454,1.454,0,1,0,1.6,2.431,16.953,16.953,0,0,0,0-28.374Zm1.9,14.187A11.1,11.1,0,0,0,23.7,6.159a1.436,1.436,0,0,0-1.991.448,1.46,1.46,0,0,0,.445,2.005,8.215,8.215,0,0,1,0,13.875,1.459,1.459,0,0,0-.445,2.005,1.439,1.439,0,0,0,1.991.448A11.1,11.1,0,0,0,28.851,15.55ZM20.33,10.93a1.443,1.443,0,1,0-1.392,2.528,2.369,2.369,0,0,1,0,4.185,1.443,1.443,0,0,0,1.392,2.528,5.255,5.255,0,0,0,0-9.241Z" transform="translate(8 9.875)"/></svg>